<svg xmlns="http://www.w3.org/2000/svg" version="1.1" xmlns:xlink="http://www.w3.org/1999/xlink" xmlns:svgjs="http://svgjs.com/svgjs" width="1435" height="560" preserveAspectRatio="none" viewBox="0 0 1435 560"><g mask="url(&quot;#SvgjsMask1002&quot;)" fill="none"><path d="M1675.62 102.96C1559.97 115.21 1489.19 367.41 1292.03 366.16 1094.87 364.91 1048.96-36.43 908.44-79.79" stroke="rgba(37, 37, 37, 0.2)" stroke-width="2"></path><path d="M1636.37 105.71C1506.92 113.41 1410.68 352.48 1179.93 352.11 949.19 351.74 870.41-6.27 723.5-30.42" stroke="rgba(37, 37, 37, 0.2)" stroke-width="2"></path><path d="M1577.67 239.1C1398.48 233.39 1179.54-36.03 917.46-40.9 655.38-45.77 671.44-105.03 587.36-105.33" stroke="rgba(37, 37, 37, 0.2)" stroke-width="2"></path><path d="M1620.93 95.44C1437.35 98.59 1274.91 330.83 925.18 330.64 575.45 330.45 427.14-36.37 229.43-48.4" stroke="rgba(37, 37, 37, 0.2)" stroke-width="2"></path><path d="M1623.66 126.27C1475.04 128.01 1340.79 294.56 1053.38 294.27 765.98 293.98 645.33-7.87 483.11-17.86" stroke="rgba(37, 37, 37, 0.2)" stroke-width="2"></path></g><defs><mask id="SvgjsMask1002"><rect width="1435" height="560" fill="#ffffff"></rect></mask></defs></svg>