<svg version="1.1" xmlns="http://www.w3.org/2000/svg" viewBox="0 0 188.39996337890625 239" width="188.39996337890625" height="239">
  <!-- svg-source:excalidraw -->
  
  <defs>
    <style class="style-fonts">
      @font-face {
        font-family: "Virgil";
        src: url("https://excalidraw.com/Virgil.woff2");
      }
      @font-face {
        font-family: "Cascadia";
        src: url("https://excalidraw.com/Cascadia.woff2");
      }
    </style>
  </defs>
  <rect x="0" y="0" width="188.39996337890625" height="239" fill="none"></rect><g stroke-opacity="0.3" fill-opacity="0.3" stroke-linecap="round" transform="translate(12.39990234375 45.843192605411275) rotate(0 82 65.99998474121094)"><path d="M101.24 16.48 L152.55 58.65 L157.61 67.41 L151.38 74.68 L95.89 120.22 L87.07 126.74 L76.45 127.44 L66.49 120.43 L13.47 76.44 L7.72 72.74 L4.99 67.75 L8.24 59.48 L15.53 55.81 L69.28 10.85 L79.58 5.32 L85.91 3.21 L100.92 17.08" stroke="none" stroke-width="0" fill="#fff"></path><path d="M102.5 16.5 M102.5 16.5 C118.11 28.9, 136.07 42.84, 143.5 49.5 M102.5 16.5 C115.28 26.39, 128.55 36.95, 143.5 49.5 M143.5 49.5 C165.2 67.7, 164.69 65.29, 143.5 82.5 M143.5 49.5 C162.45 65.16, 162.61 65.68, 143.5 82.5 M143.5 82.5 C127.61 95.24, 115.99 105.34, 102.5 115.5 M143.5 82.5 C127.53 94.15, 113.53 107.39, 102.5 115.5 M102.5 115.5 C82.76 133.15, 81 133.32, 61.5 115.5 M102.5 115.5 C80.15 130.95, 81.3 133.65, 61.5 115.5 M61.5 115.5 C46.27 103.87, 28.48 89.98, 20.5 82.5 M61.5 115.5 C48.55 104.1, 33.13 93.94, 20.5 82.5 M20.5 82.5 C1.12 67.41, 0.04 67.07, 20.5 49.5 M20.5 82.5 C0.71 64.77, 1.33 64.59, 20.5 49.5 M20.5 49.5 C33.4 38.87, 47.41 28.23, 61.5 16.5 M20.5 49.5 C32.19 40.35, 44.27 28.66, 61.5 16.5 M61.5 16.5 C82.06 1.97, 80.28 -0.26, 102.5 16.5 M61.5 16.5 C79.92 -1.15, 80.85 -1.98, 102.5 16.5" stroke="#fff" stroke-width="1" fill="none"></path></g><g transform="translate(38.09991455078125 10) rotate(0 61 109.5)"><text x="61" y="76.5" font-family="Virgil, Segoe UI Emoji" font-size="86.25883214613967px" fill="#fff" text-anchor="middle" style="white-space: pre;" direction="ltr">JD</text><text x="61" y="186" font-family="Virgil, Segoe UI Emoji" font-size="86.25883214613967px" fill="#fff" text-anchor="middle" style="white-space: pre;" direction="ltr">SC</text></g><g stroke-opacity="0.7" fill-opacity="0.7" stroke-linecap="round" transform="translate(10 101.0431742948644) rotate(0 9.5999755859375 10)"><path d="M11.78 0 C13.76 0.4, 16.13 2.54, 17.39 4.38 C18.65 6.21, 19.55 8.92, 19.35 11 C19.15 13.08, 17.64 15.47, 16.18 16.86 C14.73 18.25, 12.54 19.25, 10.64 19.32 C8.73 19.38, 6.65 18.39, 4.76 17.23 C2.86 16.07, -0.26 14.45, -0.72 12.36 C-1.18 10.26, 0.94 6.74, 2 4.67 C3.06 2.6, 3.87 0.66, 5.65 -0.08 C7.43 -0.82, 11.43 0.02, 12.66 0.21 C13.88 0.4, 13.11 0.65, 13.01 1.05 M9.7 0.14 C11.43 0.14, 13.6 0.92, 15.41 2.26 C17.22 3.61, 19.98 6.19, 20.55 8.23 C21.12 10.26, 19.92 12.69, 18.81 14.49 C17.7 16.28, 16.13 18.2, 13.89 18.98 C11.65 19.77, 7.31 20.01, 5.37 19.21 C3.44 18.4, 3.38 16.21, 2.27 14.17 C1.16 12.13, -1.34 9.03, -1.27 6.97 C-1.21 4.9, 0.83 3.11, 2.67 1.79 C4.5 0.47, 8.57 -0.45, 9.74 -0.94 C10.9 -1.43, 9.61 -1.52, 9.68 -1.15" stroke="none" stroke-width="0" fill="#fff"></path><path d="M11.42 0.78 C13.37 1.24, 15.81 2.96, 17.25 4.65 C18.68 6.35, 20.2 9.03, 20.03 10.96 C19.86 12.88, 17.83 14.82, 16.21 16.21 C14.59 17.61, 12.33 18.91, 10.32 19.33 C8.31 19.76, 5.85 20, 4.16 18.78 C2.47 17.55, 0.91 13.98, 0.2 12 C-0.5 10.01, -0.98 8.66, -0.07 6.88 C0.85 5.09, 3.32 2.44, 5.69 1.3 C8.07 0.15, 12.57 0.02, 14.2 0.02 C15.82 0.03, 15.74 0.95, 15.45 1.32 M10.95 1.23 C12.58 1.29, 14.72 1.53, 16.02 3.24 C17.32 4.96, 18.41 9.27, 18.73 11.53 C19.06 13.79, 19.29 15.3, 17.97 16.78 C16.66 18.26, 12.96 20.29, 10.84 20.41 C8.73 20.52, 7.01 18.63, 5.28 17.48 C3.56 16.33, 1.09 15.47, 0.47 13.5 C-0.15 11.53, 0.56 7.8, 1.58 5.67 C2.6 3.55, 5.1 1.51, 6.59 0.76 C8.08 0.01, 9.53 1.05, 10.52 1.18 C11.5 1.3, 12.33 1.36, 12.5 1.5" stroke="#fff" stroke-width="1" fill="none"></path></g><g stroke-opacity="0.7" fill-opacity="0.7" stroke-linecap="round" transform="translate(159.20001220703125 100.44313767377065) rotate(0 9.5999755859375 10)"><path d="M8.42 0.47 C10.24 -0.07, 11.97 -0.52, 13.75 0.42 C15.53 1.36, 18.38 4.08, 19.11 6.12 C19.83 8.16, 19.02 10.7, 18.12 12.66 C17.22 14.62, 15.26 16.54, 13.7 17.87 C12.13 19.19, 10.53 20.96, 8.72 20.59 C6.91 20.23, 4.32 17.28, 2.82 15.65 C1.32 14.02, -0.1 12.79, -0.3 10.82 C-0.51 8.85, -0.11 5.69, 1.58 3.86 C3.28 2.02, 7.86 0.25, 9.87 -0.21 C11.88 -0.67, 13.6 0.99, 13.64 1.1 M4.16 0.44 C5.69 -0.59, 8.32 -0.96, 10.7 -0.36 C13.08 0.25, 17.18 2.26, 18.45 4.08 C19.72 5.9, 18.51 8.22, 18.33 10.57 C18.15 12.91, 18.46 16.82, 17.38 18.16 C16.31 19.5, 14.29 18.57, 11.89 18.6 C9.48 18.63, 4.77 19.22, 2.93 18.32 C1.1 17.42, 1.18 15.28, 0.86 13.18 C0.53 11.08, 0.05 7.57, 0.98 5.72 C1.92 3.86, 5.78 2.67, 6.44 2.04 C7.11 1.42, 5.19 2.17, 4.97 1.96" stroke="none" stroke-width="0" fill="#fff"></path><path d="M6.84 -0.07 C8.73 -1.14, 10.56 -1.16, 12.28 -0.47 C14 0.22, 16.15 2.14, 17.15 4.06 C18.15 5.97, 18.56 8.63, 18.27 11 C17.97 13.37, 16.72 16.7, 15.37 18.28 C14.02 19.85, 12.17 20.51, 10.18 20.43 C8.19 20.36, 5.08 19.23, 3.44 17.8 C1.8 16.36, 0.77 13.71, 0.34 11.82 C-0.1 9.92, -0.3 8.22, 0.82 6.42 C1.95 4.61, 5.82 1.88, 7.08 1 C8.33 0.12, 8.35 1.16, 8.37 1.13 M7.95 -0.91 C9.53 -1.04, 12.78 0.58, 14.59 1.93 C16.4 3.27, 18.27 5.22, 18.78 7.15 C19.3 9.08, 18.63 11.42, 17.7 13.5 C16.77 15.58, 15.28 18.43, 13.22 19.63 C11.16 20.83, 7.33 21.49, 5.35 20.69 C3.37 19.9, 2.41 17.07, 1.34 14.87 C0.26 12.66, -1.59 9.35, -1.1 7.48 C-0.61 5.61, 2.33 5.08, 4.28 3.65 C6.23 2.21, 9.89 -0.4, 10.62 -1.13 C11.35 -1.87, 8.9 -1.13, 8.66 -0.74" stroke="#fff" stroke-width="1" fill="none"></path></g></svg>